<mxfile host="app.diagrams.net" modified="2024-03-21T12:32:21.868Z" agent="Mozilla/5.0 (Windows NT 10.0; Win64; x64) AppleWebKit/537.36 (KHTML, like Gecko) Chrome/122.0.0.0 Safari/537.36" etag="dfVY0BBw9Nsuyw_t4X_J" version="24.0.7" type="device">
  <diagram name="Page-1" id="mWeSTEN4kDcE91EUzqUU">
    <mxGraphModel dx="971" dy="52" grid="0" gridSize="10" guides="1" tooltips="1" connect="1" arrows="1" fold="1" page="0" pageScale="1" pageWidth="850" pageHeight="1100" math="0" shadow="0">
      <root>
        <mxCell id="0" />
        <mxCell id="1" parent="0" />
        <mxCell id="ezNnsWfWHxEFQ23frSES-12" value="" style="triangle;whiteSpace=wrap;html=1;rotation=-225;strokeWidth=0;fillColor=#525252;strokeColor=#b85450;" vertex="1" parent="1">
          <mxGeometry x="128.36" y="575.64" width="50" height="43" as="geometry" />
        </mxCell>
        <mxCell id="ezNnsWfWHxEFQ23frSES-6" value="" style="ellipse;whiteSpace=wrap;html=1;fillColor=#1b1b1b;strokeWidth=0;gradientColor=#525252;gradientDirection=radial;" vertex="1" parent="1">
          <mxGeometry x="138" y="470" width="143" height="139" as="geometry" />
        </mxCell>
        <mxCell id="ezNnsWfWHxEFQ23frSES-7" value="" style="ellipse;whiteSpace=wrap;html=1;strokeWidth=0;" vertex="1" parent="1">
          <mxGeometry x="160" y="527.5" width="21" height="22" as="geometry" />
        </mxCell>
        <mxCell id="ezNnsWfWHxEFQ23frSES-8" value="" style="ellipse;whiteSpace=wrap;html=1;strokeWidth=0;" vertex="1" parent="1">
          <mxGeometry x="201" y="526.5" width="21" height="22" as="geometry" />
        </mxCell>
        <mxCell id="ezNnsWfWHxEFQ23frSES-9" value="" style="ellipse;whiteSpace=wrap;html=1;strokeWidth=0;" vertex="1" parent="1">
          <mxGeometry x="242" y="526.5" width="21" height="22" as="geometry" />
        </mxCell>
        <mxCell id="ezNnsWfWHxEFQ23frSES-31" value="" style="group" vertex="1" connectable="0" parent="1">
          <mxGeometry x="199" y="562" width="122" height="91" as="geometry" />
        </mxCell>
        <mxCell id="ezNnsWfWHxEFQ23frSES-15" value="" style="ellipse;whiteSpace=wrap;html=1;strokeWidth=0;strokeColor=#070400;fillColor=#070400;" vertex="1" parent="ezNnsWfWHxEFQ23frSES-31">
          <mxGeometry x="45" y="42" width="32" height="31" as="geometry" />
        </mxCell>
        <mxCell id="ezNnsWfWHxEFQ23frSES-13" value="" style="ellipse;whiteSpace=wrap;html=1;strokeWidth=10;strokeColor=#070400;fillColor=none;" vertex="1" parent="ezNnsWfWHxEFQ23frSES-31">
          <mxGeometry y="42" width="50" height="49" as="geometry" />
        </mxCell>
        <mxCell id="ezNnsWfWHxEFQ23frSES-14" value="" style="ellipse;whiteSpace=wrap;html=1;strokeWidth=10;strokeColor=#070400;fillColor=none;gradientColor=default;" vertex="1" parent="ezNnsWfWHxEFQ23frSES-31">
          <mxGeometry x="72" y="42" width="50" height="49" as="geometry" />
        </mxCell>
        <mxCell id="ezNnsWfWHxEFQ23frSES-19" value="" style="edgeStyle=none;orthogonalLoop=1;jettySize=auto;html=1;rounded=0;fontSize=12;startSize=8;endSize=8;curved=1;entryX=0;entryY=0;entryDx=0;entryDy=0;strokeWidth=2;strokeColor=#070400;endArrow=none;endFill=0;exitX=0.949;exitY=0.828;exitDx=0;exitDy=0;exitPerimeter=0;" edge="1" parent="ezNnsWfWHxEFQ23frSES-31" source="ezNnsWfWHxEFQ23frSES-25">
          <mxGeometry width="140" relative="1" as="geometry">
            <mxPoint x="3.2899999999999636" y="54.805000000000064" as="sourcePoint" />
            <mxPoint x="40.99621055975325" y="4.399659041992891" as="targetPoint" />
            <Array as="points" />
          </mxGeometry>
        </mxCell>
        <mxCell id="ezNnsWfWHxEFQ23frSES-20" value="" style="edgeStyle=none;orthogonalLoop=1;jettySize=auto;html=1;rounded=0;fontSize=12;startSize=8;endSize=8;curved=1;exitX=0.98;exitY=0.184;exitDx=0;exitDy=0;exitPerimeter=0;strokeWidth=1;strokeColor=#070400;endArrow=none;endFill=0;entryX=1;entryY=0;entryDx=0;entryDy=0;" edge="1" parent="ezNnsWfWHxEFQ23frSES-31" source="ezNnsWfWHxEFQ23frSES-14" target="ezNnsWfWHxEFQ23frSES-22">
          <mxGeometry width="140" relative="1" as="geometry">
            <mxPoint x="121" y="57" as="sourcePoint" />
            <mxPoint x="84" y="2" as="targetPoint" />
            <Array as="points" />
          </mxGeometry>
        </mxCell>
        <mxCell id="ezNnsWfWHxEFQ23frSES-21" value="" style="ellipse;whiteSpace=wrap;html=1;strokeWidth=0;strokeColor=#070400;fillColor=#070400;" vertex="1" parent="ezNnsWfWHxEFQ23frSES-31">
          <mxGeometry x="51" y="10" width="21" height="22" as="geometry" />
        </mxCell>
        <mxCell id="ezNnsWfWHxEFQ23frSES-22" value="" style="ellipse;whiteSpace=wrap;html=1;strokeWidth=0;strokeColor=#070400;fillColor=#070400;" vertex="1" parent="ezNnsWfWHxEFQ23frSES-31">
          <mxGeometry x="67" width="21" height="22" as="geometry" />
        </mxCell>
        <mxCell id="ezNnsWfWHxEFQ23frSES-23" value="" style="ellipse;whiteSpace=wrap;html=1;strokeWidth=0;strokeColor=#070400;fillColor=#070400;" vertex="1" parent="ezNnsWfWHxEFQ23frSES-31">
          <mxGeometry x="36" width="21" height="22" as="geometry" />
        </mxCell>
        <mxCell id="ezNnsWfWHxEFQ23frSES-25" value="" style="whiteSpace=wrap;html=1;rotation=-235;fillColor=#070400;" vertex="1" parent="ezNnsWfWHxEFQ23frSES-31">
          <mxGeometry x="10.170000000000016" y="18.789999999999964" width="43.55" height="12" as="geometry" />
        </mxCell>
        <mxCell id="ezNnsWfWHxEFQ23frSES-26" value="" style="whiteSpace=wrap;html=1;rotation=55;fillColor=#070400;" vertex="1" parent="ezNnsWfWHxEFQ23frSES-31">
          <mxGeometry x="74" y="23.540000000000077" width="48" height="7.25" as="geometry" />
        </mxCell>
        <mxCell id="ezNnsWfWHxEFQ23frSES-27" value="" style="whiteSpace=wrap;html=1;fillColor=#070400;" vertex="1" parent="ezNnsWfWHxEFQ23frSES-31">
          <mxGeometry x="41" y="39" width="37" height="15.81" as="geometry" />
        </mxCell>
        <mxCell id="ezNnsWfWHxEFQ23frSES-28" value="" style="whiteSpace=wrap;html=1;fillColor=#070400;" vertex="1" parent="ezNnsWfWHxEFQ23frSES-31">
          <mxGeometry x="24" y="28.600000000000023" width="77" height="15.81" as="geometry" />
        </mxCell>
        <mxCell id="ezNnsWfWHxEFQ23frSES-30" value="" style="whiteSpace=wrap;html=1;fillColor=#070400;" vertex="1" parent="ezNnsWfWHxEFQ23frSES-31">
          <mxGeometry x="35.54000000000002" y="18" width="59.46" height="17" as="geometry" />
        </mxCell>
        <mxCell id="ezNnsWfWHxEFQ23frSES-47" value="" style="edgeStyle=none;orthogonalLoop=1;jettySize=auto;html=1;rounded=0;fontSize=12;startSize=8;endSize=8;curved=1;exitX=0.46;exitY=0.204;exitDx=0;exitDy=0;exitPerimeter=0;endArrow=none;endFill=0;strokeWidth=3;strokeColor=default;sketch=1;curveFitting=1;jiggle=2;" edge="1" parent="ezNnsWfWHxEFQ23frSES-31">
          <mxGeometry width="140" relative="1" as="geometry">
            <mxPoint x="24.000000000000114" y="50.99599999999998" as="sourcePoint" />
            <mxPoint x="41" y="68" as="targetPoint" />
            <Array as="points">
              <mxPoint x="42" y="52" />
            </Array>
          </mxGeometry>
        </mxCell>
        <mxCell id="ezNnsWfWHxEFQ23frSES-48" value="" style="edgeStyle=none;orthogonalLoop=1;jettySize=auto;html=1;rounded=0;fontSize=12;startSize=8;endSize=8;curved=1;exitX=0.46;exitY=0.204;exitDx=0;exitDy=0;exitPerimeter=0;endArrow=none;endFill=0;strokeWidth=3;strokeColor=default;sketch=1;curveFitting=1;jiggle=2;" edge="1" parent="ezNnsWfWHxEFQ23frSES-31">
          <mxGeometry width="140" relative="1" as="geometry">
            <mxPoint x="95.00000000000011" y="50.99599999999998" as="sourcePoint" />
            <mxPoint x="112" y="67" as="targetPoint" />
            <Array as="points">
              <mxPoint x="113" y="52" />
            </Array>
          </mxGeometry>
        </mxCell>
      </root>
    </mxGraphModel>
  </diagram>
</mxfile>
